<svg width="256" height="256" xmlns="http://www.w3.org/2000/svg">
 <g id="Layer_1">
  <title>Layer 1</title>
  <ellipse fill="none" stroke="#000" cx="189" cy="327.5" id="svg_2"/>
  <ellipse fill="none" stroke="#000" cx="374" cy="211.5" id="svg_3"/>
  <path d="m63.5,71.5c0,0 0,1 0,2c0,2 -0.45881,3.69344 -1,5c-0.38268,0.92388 0,1 0,2c0,0 0,0 0,0c0,1 0,2 0,4c0,1 -0.70711,2.29289 0,3c0.70711,0.70711 1.0535,0.4595 3,0c2.17625,-0.51374 4.15224,-1.23463 6,-2c1.30656,-0.5412 2.60644,-1.5387 4,-4c2.03145,-3.58793 2,-7 3,-9c1,-2 1,-2 2,-2c0,0 0.23463,2.15224 1,4c1.08239,2.61313 3,4 5,5l2,1l2,0" id="svg_5" stroke="#000" fill="none"/>
  <polyline stroke-linecap="round" id="svg_6" points="137.5,47.5 138.5,47.5 " stroke="#000" fill="none"/>
  <path d="m88.5,80.5c0,0 0,1 0,1c0,1 0,1 0,1c1,0 1.07612,0.38268 2,0c1.30656,-0.5412 5,-5 7,-7c1,-1 2,-2 3,-3c0,0 0,0 1,0c0,0 0.70546,0.34619 3,2c1.814,1.30745 2.69344,2.4588 4,3c0.92388,0.38268 1,0 2,0c0,0 0,0 0,0c1,0 1,0 1,0c1,0 1.1034,1.90633 2,3c2.28588,2.78832 2,4 3,5c1,1 2.14935,1.52573 3,1c1.90211,-1.17557 1.29289,-2.29289 2,-3c0.70711,-0.70711 1,0 1,0c0,0 1,0 2,1c2,2 5.69344,3.4588 7,4c0.92387,0.38268 2.07613,0.38268 3,0c1.30656,-0.5412 0.61731,-1.07612 1,-2c0.5412,-1.30656 1.82375,-1.48626 4,-2c1.9465,-0.4595 5.15224,-0.76537 7,0c1.30656,0.5412 2.07613,1.38268 3,1c1.30656,-0.5412 2,-3 2,-5c0,-1 1,-1 1,-1c0,0 1,0 3,0c1,0 1,0 2,0c0,0 0,-1 0,-3c0,0 -1,-1 -1,-1c0,0 0.16019,-0.01291 0,-1c-0.50655,-3.12144 -2.41589,-5.76108 -4,-9c-1.38936,-2.84072 -2,-4 -2,-4c-1,-1 -1,-1 -1,-1c0,0 -1,0 -1,0c-1,0 -3,0 -5,0c-2,0 -7.00749,-0.87782 -8,-1c-4.09221,-0.50377 -8,-1 -11,-1c-4,0 -8,0 -12,0c-3,0 -5.01498,0.24437 -7,0c-4.09222,-0.50377 -6,-1 -9,-1c-2,0 -5,0 -8,0c-2,0 -4,0 -5,0c-2,0 -3,1 -5,1c-1,0 -2.29289,0.29289 -3,1c-0.70711,0.70711 -1.07612,0.61732 -2,1c-1.30656,0.54119 -2,2 -2,2c0,0 -1,1 -1,1c0,0 -1,1 -2,2c-1,1 -3,2 -3,2c-1,0 -1,0 -1,0c-1,0 -1,0 -1,0c0,0 -1,0 -1,0c-1,0 -1,0 -1,0c-1,0 -1,1 -1,1c-1,0 -1,0 -1,0l0,0l0,0" id="svg_7" stroke="#000" fill="#000000"/>
  <polyline stroke-linecap="round" id="svg_8" points="240.5,142.5 240.5,142.5 " stroke="#000" fill="none"/>
 </g>

</svg>