<svg width="256" height="256" xmlns="http://www.w3.org/2000/svg">
 <g id="Layer_1">
  <title>Layer 1</title>
  <ellipse fill="none" stroke="#000" cx="189" cy="327.5" id="svg_2"/>
  <ellipse fill="none" stroke="#000" cx="374" cy="211.5" id="svg_3"/>
  <path d="m78,39.5c-1,0 -1,0 -1,0c0,1 0,1 0,4c0,1 0,3 0,5c0,1 0,1 0,1c0,1 1,2 1,6c0,4 1,8 1,10c0,1 0,1 0,1c0,-2 0.56697,-6.07566 2,-13c2.31069,-11.16516 4.98638,-22.19325 7,-30c1.34499,-5.2145 3,-8 4,-9c0,0 0,0 0,1c0,1 0.64555,5.01258 1,10c0.50126,7.05328 0.03891,14.07748 1,20c0.50654,3.12144 1,5 1,5c0,0 0,-4 1,-10c1,-6 1.96855,-13.41207 4,-17c0.69678,-1.23065 1,-2 1,-2c0,1 1,2 1,6c0,4 1,6 1,8c0,0 1,0 1,0c3,-4 5.79726,-9.09443 11,-20c1.92562,-4.03633 4,-8 3,-8c-1,0 0,3 0,6c0,6 0,12 0,17c0,2 -0.38268,2.92388 0,2c0.5412,-1.30656 1.79394,-3.08744 4,-8c1.83204,-4.07966 2.58578,-6.58579 4,-8c0.70711,-0.70711 1,1 1,5c0,5 0,8 0,9c0,1 -0.38268,0.92388 0,0c0.5412,-1.30656 3.95517,-4.54916 5,-8c0.28978,-0.95709 1,-1 1,0c0,1 0,5 0,7c0,1 1,2 1,2c3,-3 4.81145,-5.13464 7,-8c1.91948,-2.51308 2,-4 2,-4c0,0 0,3 0,8c0,5 0,6 0,7c0,0 0.21005,0.14924 3,-4c3.2536,-4.83881 7,-10 9,-12c1,-1 1,-1 1,0c0,5 -0.49623,9.90779 -1,14c-0.24437,1.98502 0,3 0,3c0,-1 1.95021,-4.04024 6,-9c4.93976,-6.04969 6,-8 7,-9c0,0 0.64073,1.05165 0,5c-1.51962,9.36433 -4.76137,17.04468 -6,23c-0.83958,4.03672 -1,7 -1,7c0,0 1.42726,-2.5178 6,-7c5.57762,-5.46719 11.67738,-11.34098 18,-17c4.77115,-4.27038 6.69344,-6.4588 8,-7c0.92387,-0.38268 1,0 1,0c0,0 -1,3 -2,8c-2,10 -3.84723,18.04132 -5,22c-0.88414,3.03617 -1,4 -1,4c0,0 2.25935,-2.77062 4,-5c3.58844,-4.59599 5.29289,-8.29289 6,-9c0.70711,-0.70711 0.02748,1.6475 -1,6c-0.91901,3.893 -1.4588,6.69344 -2,8c-0.38269,0.92388 0.07613,1.38268 1,1c1.30656,-0.54119 4,-4 5,-5c1,-1 2,-1 2,-1c0,0 -0.29289,1.29289 -1,2c-1.41422,1.41422 0,3 1,2c2,-2 5.29289,-3.29289 6,-4c0.70711,-0.70711 1.16019,-0.98709 1,0c-0.50655,3.12144 -3.76314,10.34346 -6,16c-1.3259,3.35291 -2.92387,4.61732 -2,5c2.61313,1.08239 5,-5 6,-6c1,-1 1,-1 1,-1l0,1l0,1" id="svg_4" stroke="#000" fill="none"/>
 </g>

</svg>