<svg width="256" height="256" xmlns="http://www.w3.org/2000/svg">
 <g id="Layer_1">
  <title>Layer 1</title>
  <ellipse id="svg_2" cy="327.5" cx="189" stroke="#000" fill="none"/>
  <ellipse id="svg_3" cy="211.5" cx="374" stroke="#000" fill="none"/>
  <path d="m94,161.5c0,0 0,1 0,1c0,2 0,4 1,6c1,2 2.2565,3.797 3,5c1.66251,2.68999 2.87766,6.06601 4,8c1.80972,3.11848 2.71412,5.21167 5,8c0.8966,1.09367 2.0535,1.5405 4,2c2.17625,0.51375 3.82375,1.48625 6,2c2.91975,0.68925 5,0 8,0c4,0 9.15224,0.76537 11,0c2.61313,-1.0824 3.38687,-2.9176 6,-4c0.92387,-0.38269 4.2068,-2.81265 6,-5c2.28587,-2.78833 2.78986,-5.07843 4,-8c1.71141,-4.13171 2.78986,-6.07843 4,-9c0.85571,-2.06586 1.4588,-4.69344 2,-6c0.38269,-0.92387 -0.38269,-2.07613 0,-3c0.5412,-1.30656 1,-2 1,-4l0,0l0,0" id="svg_4" stroke="#000" fill="none"/>
  <path d="m93,160.5c0,0 1.29289,-0.70711 2,0c0.70711,0.70711 0.69344,2.4588 2,3c0.92388,0.38269 1.29289,0.29289 2,1c0.70711,0.70711 1.07612,0.61731 2,1c1.30656,0.5412 2,1 3,2c0,0 1,0 1,0c1,0 1,1 1,1c0,0 2.41207,-0.03145 6,2c1.23065,0.69678 4,2 5,3c0,0 1,0 1,0c3,1 4,2 5,2c2,0 3,0 4,0c1,0 2,0 4,0c1,0 3.186,0.30745 5,-1c1.14726,-0.8269 2.29289,-1.29289 3,-2c0.70711,-0.70711 1.61731,-2.07613 2,-3c0.5412,-1.30656 2,-1 3,-2c1,-1 1,-1 2,-2c1,-1 1.29289,-1.29289 2,-2c0.70711,-0.70711 1,-1 1,-1c1,0 1,0 1,0c0,0 1.29289,-0.29289 2,-1c0.70711,-0.70711 1,-1 1,-1c0,-1 0,-1 0,-1c1,0 1,0 1,0l0,0l0,0" id="svg_6" stroke="#000" fill="none"/>
  <polyline stroke-linecap="round" id="svg_7" points="367,146.5 367,146.5 " stroke="#000" fill="none"/>
 </g>

</svg>